<svg width="1000" height="1000" viewBox="0 0 1000 1000" fill="none" xmlns="http://www.w3.org/2000/svg">
<rect width="1000" height="1000" fill="#008CFF"/>
<path d="M506.6 467.369L647.179 467.989" stroke="white" stroke-width="23.76" stroke-linecap="round"/>
<rect x="352.82" y="161.13" width="293.7" height="242.22" stroke="white" stroke-width="22.44"/>
<path d="M394.401 206.565L423.581 207.184" stroke="white" stroke-width="10.56" stroke-linecap="round"/>
<circle cx="369.98" cy="610.59" r="11.88" fill="white"/>
<line x1="334.34" y1="644.91" x2="665" y2="644.91" stroke="white" stroke-width="23.76" stroke-linecap="round"/>
<line x1="665" y1="644.91" x2="665" y2="581.55" stroke="white" stroke-width="23.76" stroke-linecap="round"/>
<line x1="334.34" y1="642.93" x2="334.34" y2="579.57" stroke="white" stroke-width="23.76" stroke-linecap="round"/>
<path d="M332.36 108.33C314.864 108.33 300.68 122.514 300.68 140.01V545.25C300.68 562.746 314.864 576.93 332.36 576.93H667.64C685.136 576.93 699.32 562.746 699.32 545.25V140.01C699.32 122.514 685.136 108.33 667.64 108.33H332.36Z" stroke="white" stroke-width="23.76"/>
<path d="M230.723 844.79L206.055 773.247H205.527C205.645 774.849 205.781 777.036 205.938 779.81C206.094 782.583 206.23 785.552 206.348 788.716C206.465 791.88 206.523 794.907 206.523 797.798V844.79H193.75V759.126H213.496L237.227 827.505H237.578L262.129 759.126H281.816V844.79H268.398V797.095C268.398 794.478 268.438 791.646 268.516 788.599C268.633 785.552 268.75 782.661 268.867 779.927C269.023 777.192 269.141 775.005 269.219 773.364H268.75L243.145 844.79H230.723ZM338.945 798.267H370.938V841.274C366.445 842.759 361.797 843.911 356.992 844.731C352.188 845.552 346.797 845.962 340.82 845.962C332.109 845.962 324.727 844.243 318.672 840.806C312.656 837.329 308.086 832.31 304.961 825.747C301.836 819.146 300.273 811.196 300.273 801.899C300.273 792.954 302.012 785.2 305.488 778.638C308.965 772.036 314.023 766.938 320.664 763.345C327.305 759.712 335.352 757.896 344.805 757.896C349.453 757.896 353.945 758.364 358.281 759.302C362.656 760.2 366.66 761.45 370.293 763.052L365.371 774.653C362.48 773.286 359.238 772.134 355.645 771.196C352.051 770.259 348.32 769.79 344.453 769.79C338.32 769.79 333.027 771.118 328.574 773.774C324.16 776.431 320.762 780.181 318.379 785.024C315.996 789.829 314.805 795.513 314.805 802.075C314.805 808.442 315.762 814.028 317.676 818.833C319.59 823.638 322.578 827.388 326.641 830.083C330.742 832.739 336.035 834.067 342.52 834.067C345.762 834.067 348.516 833.892 350.781 833.54C353.047 833.188 355.137 832.798 357.051 832.368V810.278H338.945V798.267ZM440.312 778.696C440.312 782.563 439.531 785.923 437.969 788.774C436.406 791.626 434.258 793.97 431.523 795.806C428.828 797.603 425.703 798.892 422.148 799.673V800.083C428.984 800.942 434.141 803.091 437.617 806.528C441.133 809.966 442.891 814.517 442.891 820.181C442.891 825.142 441.699 829.575 439.316 833.481C436.934 837.349 433.281 840.396 428.359 842.622C423.438 844.849 417.109 845.962 409.375 845.962C404.727 845.962 400.41 845.591 396.426 844.849C392.48 844.106 388.73 842.915 385.176 841.274V829.028C388.809 830.825 392.676 832.212 396.777 833.188C400.879 834.165 404.766 834.653 408.438 834.653C415.586 834.653 420.684 833.325 423.73 830.669C426.777 827.974 428.301 824.263 428.301 819.536C428.301 816.489 427.5 813.989 425.898 812.036C424.336 810.083 421.895 808.618 418.574 807.642C415.293 806.665 411.055 806.177 405.859 806.177H398.301V795.103H405.918C410.879 795.103 414.863 794.517 417.871 793.345C420.879 792.134 423.047 790.474 424.375 788.364C425.742 786.255 426.426 783.794 426.426 780.981C426.426 777.31 425.234 774.458 422.852 772.427C420.469 770.356 416.934 769.321 412.246 769.321C409.355 769.321 406.719 769.653 404.336 770.317C401.992 770.981 399.824 771.821 397.832 772.837C395.84 773.853 393.945 774.946 392.148 776.118L385.527 766.567C388.77 764.146 392.637 762.095 397.129 760.415C401.621 758.735 406.855 757.896 412.832 757.896C421.621 757.896 428.398 759.79 433.164 763.579C437.93 767.329 440.312 772.368 440.312 778.696ZM456.719 837.524C456.719 834.321 457.539 832.075 459.18 830.786C460.859 829.458 462.891 828.794 465.273 828.794C467.656 828.794 469.688 829.458 471.367 830.786C473.086 832.075 473.945 834.321 473.945 837.524C473.945 840.649 473.086 842.915 471.367 844.321C469.688 845.688 467.656 846.372 465.273 846.372C462.891 846.372 460.859 845.688 459.18 844.321C457.539 842.915 456.719 840.649 456.719 837.524ZM517.773 845.962C511.641 845.962 506.328 844.771 501.836 842.388C497.344 840.005 493.887 836.353 491.465 831.431C489.043 826.509 487.832 820.259 487.832 812.681C487.832 804.79 489.16 798.345 491.816 793.345C494.473 788.345 498.145 784.653 502.832 782.271C507.559 779.888 512.969 778.696 519.062 778.696C522.93 778.696 526.426 779.087 529.551 779.868C532.715 780.61 535.391 781.528 537.578 782.622L533.477 793.638C531.094 792.661 528.652 791.841 526.152 791.177C523.652 790.513 521.25 790.181 518.945 790.181C515.156 790.181 511.992 791.021 509.453 792.7C506.953 794.38 505.078 796.88 503.828 800.2C502.617 803.521 502.012 807.642 502.012 812.563C502.012 817.329 502.637 821.353 503.887 824.634C505.137 827.876 506.992 830.337 509.453 832.017C511.914 833.657 514.941 834.478 518.535 834.478C522.09 834.478 525.273 834.048 528.086 833.188C530.898 832.329 533.555 831.216 536.055 829.849V841.802C533.594 843.208 530.957 844.243 528.145 844.907C525.332 845.61 521.875 845.962 517.773 845.962ZM608.711 812.212C608.711 817.603 608.008 822.388 606.602 826.567C605.195 830.747 603.145 834.282 600.449 837.173C597.754 840.024 594.512 842.212 590.723 843.735C586.934 845.22 582.656 845.962 577.891 845.962C573.438 845.962 569.355 845.22 565.645 843.735C561.934 842.212 558.711 840.024 555.977 837.173C553.281 834.282 551.191 830.747 549.707 826.567C548.223 822.388 547.48 817.603 547.48 812.212C547.48 805.063 548.711 799.009 551.172 794.048C553.672 789.048 557.227 785.239 561.836 782.622C566.445 780.005 571.934 778.696 578.301 778.696C584.277 778.696 589.551 780.005 594.121 782.622C598.691 785.239 602.266 789.048 604.844 794.048C607.422 799.048 608.711 805.103 608.711 812.212ZM561.66 812.212C561.66 816.938 562.227 820.981 563.359 824.341C564.531 827.7 566.328 830.278 568.75 832.075C571.172 833.833 574.297 834.712 578.125 834.712C581.953 834.712 585.078 833.833 587.5 832.075C589.922 830.278 591.699 827.7 592.832 824.341C593.965 820.981 594.531 816.938 594.531 812.212C594.531 807.485 593.965 803.481 592.832 800.2C591.699 796.88 589.922 794.36 587.5 792.642C585.078 790.884 581.934 790.005 578.066 790.005C572.363 790.005 568.203 791.919 565.586 795.747C562.969 799.575 561.66 805.063 561.66 812.212ZM646.328 845.962C638.594 845.962 632.383 843.149 627.695 837.524C623.047 831.86 620.723 823.521 620.723 812.505C620.723 801.372 623.086 792.954 627.812 787.251C632.578 781.548 638.848 778.696 646.621 778.696C649.902 778.696 652.773 779.146 655.234 780.044C657.695 780.903 659.805 782.075 661.562 783.56C663.359 785.044 664.883 786.704 666.133 788.54H666.777C666.582 787.329 666.348 785.591 666.074 783.325C665.84 781.021 665.723 778.892 665.723 776.938V753.618H679.551V844.79H668.77L666.309 835.942H665.723C664.551 837.817 663.066 839.517 661.27 841.04C659.512 842.524 657.402 843.716 654.941 844.614C652.52 845.513 649.648 845.962 646.328 845.962ZM650.195 834.771C656.094 834.771 660.254 833.071 662.676 829.673C665.098 826.274 666.348 821.177 666.426 814.38V812.563C666.426 805.298 665.254 799.731 662.91 795.864C660.566 791.958 656.289 790.005 650.078 790.005C645.117 790.005 641.328 792.017 638.711 796.04C636.133 800.024 634.844 805.591 634.844 812.739C634.844 819.888 636.133 825.356 638.711 829.146C641.328 832.896 645.156 834.771 650.195 834.771ZM725.137 778.696C730.918 778.696 735.879 779.888 740.02 782.271C744.16 784.653 747.344 788.032 749.57 792.407C751.797 796.782 752.91 802.017 752.91 808.11V815.493H709.609C709.766 821.782 711.445 826.626 714.648 830.024C717.891 833.423 722.422 835.122 728.242 835.122C732.383 835.122 736.094 834.731 739.375 833.95C742.695 833.13 746.113 831.938 749.629 830.376V841.567C746.387 843.091 743.086 844.204 739.727 844.907C736.367 845.61 732.344 845.962 727.656 845.962C721.289 845.962 715.684 844.731 710.84 842.271C706.035 839.771 702.266 836.06 699.531 831.138C696.836 826.216 695.488 820.103 695.488 812.798C695.488 805.532 696.719 799.36 699.18 794.282C701.641 789.204 705.098 785.337 709.551 782.681C714.004 780.024 719.199 778.696 725.137 778.696ZM725.137 789.067C720.801 789.067 717.285 790.474 714.59 793.286C711.934 796.099 710.371 800.22 709.902 805.649H739.434C739.395 802.407 738.848 799.536 737.793 797.036C736.777 794.536 735.215 792.583 733.105 791.177C731.035 789.771 728.379 789.067 725.137 789.067ZM812.031 826.274C812.031 830.532 810.996 834.126 808.926 837.056C806.855 839.985 803.828 842.212 799.844 843.735C795.898 845.22 791.055 845.962 785.312 845.962C780.781 845.962 776.875 845.63 773.594 844.966C770.352 844.341 767.285 843.364 764.395 842.036V830.142C767.48 831.587 770.938 832.837 774.766 833.892C778.633 834.946 782.285 835.474 785.723 835.474C790.254 835.474 793.516 834.771 795.508 833.364C797.5 831.919 798.496 830.005 798.496 827.622C798.496 826.216 798.086 824.966 797.266 823.872C796.484 822.739 795 821.587 792.812 820.415C790.664 819.204 787.5 817.759 783.32 816.079C779.219 814.438 775.762 812.798 772.949 811.157C770.137 809.517 768.008 807.544 766.562 805.239C765.117 802.896 764.395 799.907 764.395 796.274C764.395 790.532 766.66 786.177 771.191 783.208C775.762 780.2 781.797 778.696 789.297 778.696C793.281 778.696 797.031 779.106 800.547 779.927C804.102 780.708 807.578 781.86 810.977 783.384L806.641 793.755C803.711 792.466 800.762 791.411 797.793 790.591C794.863 789.731 791.875 789.302 788.828 789.302C785.273 789.302 782.559 789.849 780.684 790.942C778.848 792.036 777.93 793.599 777.93 795.63C777.93 797.153 778.379 798.442 779.277 799.497C780.176 800.552 781.719 801.606 783.906 802.661C786.133 803.716 789.219 805.024 793.164 806.587C797.031 808.071 800.371 809.634 803.184 811.274C806.035 812.876 808.223 814.849 809.746 817.192C811.27 819.536 812.031 822.563 812.031 826.274Z" fill="white"/>
</svg>
