<svg width="2050" height="1172" viewBox="0 0 2050 1172" fill="none" xmlns="http://www.w3.org/2000/svg">
<rect width="2050" height="1171.43" fill="#008CFF"/>
<path d="M441.548 686.107L620.488 686.895" stroke="white" stroke-width="30.2437" stroke-linecap="round"/>
<rect x="245.804" y="296.299" width="373.846" height="308.318" stroke="white" stroke-width="28.5635"/>
<path d="M298.732 354.133L335.874 354.921" stroke="white" stroke-width="13.4417" stroke-linecap="round"/>
<circle cx="267.646" cy="868.41" r="15.1219" fill="white"/>
<line x1="222.281" y1="912.095" x2="643.173" y2="912.095" stroke="white" stroke-width="30.2437" stroke-linecap="round"/>
<line x1="643.173" y1="912.095" x2="643.173" y2="831.445" stroke="white" stroke-width="30.2437" stroke-linecap="round"/>
<line x1="222.28" y1="909.575" x2="222.28" y2="828.925" stroke="white" stroke-width="30.2437" stroke-linecap="round"/>
<path d="M219.76 229.091C197.489 229.091 179.435 247.145 179.435 269.416V785.24C179.435 807.511 197.489 825.565 219.76 825.565H646.533C668.804 825.565 686.858 807.511 686.858 785.24V269.416C686.858 247.145 668.804 229.091 646.533 229.091H219.76Z" stroke="white" stroke-width="30.2437"/>
<line x1="952.331" y1="1093.14" x2="952.331" y2="78.2915" stroke="white" stroke-width="30.2437" stroke-linecap="round"/>
<path d="M1351.09 714.472L1290.64 539.17H1289.35C1289.64 543.094 1289.97 548.454 1290.35 555.25C1290.74 562.046 1291.07 569.32 1291.36 577.073C1291.65 584.826 1291.79 592.244 1291.79 599.327V714.472H1260.49V504.569H1308.88L1367.02 672.118H1367.88L1428.04 504.569H1476.28V714.472H1443.4V597.604C1443.4 591.191 1443.5 584.252 1443.69 576.786C1443.98 569.32 1444.26 562.237 1444.55 555.537C1444.93 548.837 1445.22 543.477 1445.41 539.457H1444.26L1381.52 714.472H1351.09ZM1616.26 600.476H1694.65V705.858C1683.65 709.495 1672.26 712.319 1660.48 714.329C1648.71 716.339 1635.5 717.344 1620.86 717.344C1599.51 717.344 1581.42 713.132 1566.59 704.709C1551.85 696.191 1540.65 683.891 1532.99 667.811C1525.34 651.635 1521.51 632.157 1521.51 609.377C1521.51 587.458 1525.77 568.459 1534.28 552.379C1542.8 536.203 1555.2 523.712 1571.47 514.906C1587.74 506.005 1607.46 501.554 1630.62 501.554C1642.01 501.554 1653.02 502.703 1663.64 505C1674.36 507.201 1684.17 510.264 1693.08 514.189L1681.02 542.616C1673.93 539.266 1665.99 536.442 1657.18 534.145C1648.38 531.848 1639.24 530.699 1629.76 530.699C1614.73 530.699 1601.76 533.954 1590.85 540.462C1580.04 546.971 1571.71 556.16 1565.87 568.028C1560.03 579.801 1557.11 593.728 1557.11 609.808C1557.11 625.409 1559.46 639.097 1564.15 650.87C1568.84 662.642 1576.16 671.831 1586.11 678.435C1596.16 684.944 1609.13 688.198 1625.02 688.198C1632.97 688.198 1639.71 687.768 1645.27 686.906C1650.82 686.045 1655.94 685.088 1660.63 684.035V629.908H1616.26V600.476ZM1864.64 552.522C1864.64 561.998 1862.73 570.23 1858.9 577.217C1855.07 584.204 1849.81 589.947 1843.11 594.446C1836.5 598.848 1828.85 602.007 1820.14 603.921V604.926C1836.89 607.032 1849.52 612.296 1858.04 620.719C1866.65 629.142 1870.96 640.293 1870.96 654.172C1870.96 666.327 1868.04 677.191 1862.2 686.763C1856.37 696.238 1847.42 703.704 1835.36 709.16C1823.3 714.616 1807.79 717.344 1788.84 717.344C1777.45 717.344 1766.87 716.434 1757.11 714.616C1747.44 712.797 1738.25 709.878 1729.54 705.858V675.851C1738.44 680.254 1747.92 683.652 1757.97 686.045C1768.02 688.438 1777.54 689.634 1786.54 689.634C1804.06 689.634 1816.55 686.38 1824.01 679.871C1831.48 673.267 1835.21 664.174 1835.21 652.592C1835.21 645.127 1833.25 639.001 1829.33 634.215C1825.5 629.429 1819.52 625.84 1811.38 623.447C1803.34 621.054 1792.95 619.858 1780.22 619.858H1761.7V592.723H1780.37C1792.52 592.723 1802.29 591.287 1809.66 588.415C1817.03 585.448 1822.34 581.38 1825.59 576.212C1828.94 571.043 1830.62 565.013 1830.62 558.122C1830.62 549.124 1827.7 542.137 1821.86 537.16C1816.02 532.087 1807.36 529.551 1795.87 529.551C1788.79 529.551 1782.33 530.364 1776.49 531.992C1770.75 533.619 1765.44 535.677 1760.55 538.165C1755.67 540.654 1751.03 543.334 1746.63 546.205L1730.4 522.803C1738.35 516.869 1747.82 511.844 1758.83 507.728C1769.84 503.612 1782.66 501.554 1797.31 501.554C1818.85 501.554 1835.45 506.196 1847.13 515.481C1858.81 524.669 1864.64 537.017 1864.64 552.522Z" fill="white"/>
</svg>
