<svg width="2049" height="1245" viewBox="0 0 2049 1245" fill="none" xmlns="http://www.w3.org/2000/svg">
<path d="M330 741.5L542.998 742.438" stroke="black" stroke-width="36" stroke-linecap="round"/>
<rect x="97" y="277.501" width="445" height="367" stroke="black" stroke-width="34"/>
<path d="M160.002 346.342L204.213 347.28" stroke="black" stroke-width="16" stroke-linecap="round"/>
<circle cx="123" cy="958.501" r="18" fill="black"/>
<line x1="69" y1="1010.5" x2="570" y2="1010.5" stroke="black" stroke-width="36" stroke-linecap="round"/>
<line x1="570" y1="1010.5" x2="570" y2="914.501" stroke="black" stroke-width="36" stroke-linecap="round"/>
<line x1="69" y1="1007.5" x2="69" y2="911.501" stroke="black" stroke-width="36" stroke-linecap="round"/>
<path d="M574 197.501H66C39.4903 197.501 18 218.991 18 245.501V859.501C18 886.01 39.4904 907.501 66 907.501H574C600.51 907.501 622 886.01 622 859.501V245.501C622 218.991 600.51 197.501 574 197.501Z" stroke="black" stroke-width="36"/>
<line x1="938" y1="1226" x2="938" y2="18" stroke="black" stroke-width="36" stroke-linecap="round"/>
<path d="M1412.65 775.501L1340.7 566.834H1339.16C1339.5 571.505 1339.9 577.885 1340.36 585.974C1340.82 594.064 1341.21 602.722 1341.56 611.951C1341.9 621.18 1342.07 630.009 1342.07 638.44V775.501H1304.81V525.647H1362.41L1431.62 725.086H1432.64L1504.25 525.647H1561.67V775.501H1522.54V636.389C1522.54 628.756 1522.65 620.496 1522.88 611.609C1523.22 602.722 1523.56 594.291 1523.9 586.316C1524.36 578.341 1524.7 571.961 1524.93 567.176H1523.56L1448.88 775.501H1412.65ZM1728.3 639.807H1821.61V765.247C1808.51 769.576 1794.95 772.937 1780.94 775.33C1766.92 777.722 1751.2 778.919 1733.77 778.919C1708.36 778.919 1686.83 773.906 1669.17 763.88C1651.62 753.74 1638.29 739.099 1629.18 719.959C1620.06 700.704 1615.51 677.519 1615.51 650.403C1615.51 624.313 1620.58 601.697 1630.72 582.556C1640.86 563.302 1655.61 548.434 1674.98 537.952C1694.35 527.356 1717.82 522.058 1745.39 522.058C1758.95 522.058 1772.05 523.426 1784.7 526.16C1797.46 528.78 1809.13 532.426 1819.73 537.097L1805.37 570.935C1796.94 566.948 1787.49 563.587 1777 560.852C1766.52 558.118 1755.64 556.751 1744.36 556.751C1726.48 556.751 1711.04 560.624 1698.05 568.372C1685.18 576.119 1675.26 587.057 1668.31 601.184C1661.36 615.198 1657.89 631.775 1657.89 650.916C1657.89 669.487 1660.68 685.779 1666.26 699.793C1671.85 713.806 1680.56 724.744 1692.41 732.605C1704.37 740.353 1719.81 744.226 1738.72 744.226C1748.18 744.226 1756.21 743.714 1762.82 742.688C1769.43 741.663 1775.52 740.524 1781.11 739.27V674.842H1728.3V639.807ZM2023.95 582.727C2023.95 594.007 2021.67 603.805 2017.12 612.122C2012.56 620.439 2006.29 627.275 1998.32 632.63C1990.46 637.871 1981.34 641.63 1970.97 643.909V645.105C1990.91 647.612 2005.95 653.878 2016.09 663.904C2026.35 673.93 2031.47 687.203 2031.47 703.723C2031.47 718.193 2028 731.124 2021.05 742.517C2014.1 753.797 2003.45 762.683 1989.09 769.178C1974.73 775.672 1956.28 778.919 1933.72 778.919C1920.16 778.919 1907.57 777.836 1895.95 775.672C1884.44 773.507 1873.51 770.032 1863.14 765.247V729.529C1873.73 734.77 1885.01 738.815 1896.98 741.663C1908.94 744.511 1920.27 745.935 1930.98 745.935C1951.83 745.935 1966.7 742.062 1975.59 734.314C1984.48 726.453 1988.92 715.629 1988.92 701.844C1988.92 692.957 1986.58 685.665 1981.91 679.969C1977.35 674.272 1970.23 669.999 1960.55 667.151C1950.98 664.303 1938.62 662.879 1923.46 662.879H1901.42V630.579H1923.64C1938.11 630.579 1949.73 628.87 1958.5 625.452C1967.27 621.92 1973.6 617.078 1977.47 610.926C1981.46 604.773 1983.45 597.596 1983.45 589.392C1983.45 578.683 1979.98 570.366 1973.03 564.441C1966.08 558.403 1955.76 555.384 1942.09 555.384C1933.66 555.384 1925.97 556.352 1919.02 558.289C1912.19 560.226 1905.86 562.675 1900.05 565.638C1894.24 568.6 1888.72 571.79 1883.47 575.208L1864.16 547.351C1873.62 540.288 1884.9 534.306 1898 529.407C1911.1 524.508 1926.37 522.058 1943.8 522.058C1969.44 522.058 1989.2 527.584 2003.1 538.636C2017 549.573 2023.95 564.27 2023.95 582.727Z" fill="black"/>
</svg>
