<svg width="2064" height="1245" viewBox="0 0 2064 1245" fill="none" xmlns="http://www.w3.org/2000/svg">
<path d="M66 215.001C39.4903 215.001 18 236.491 18 263.001V877.001C18 903.511 39.4904 925.001 66 925.001H574C600.51 925.001 622 903.51 622 877.001V263.001C622 236.491 600.51 215.001 574 215.001H66Z" stroke="white" stroke-width="36"/>
<path d="M330 759L542.998 759.938" stroke="white" stroke-width="36" stroke-linecap="round"/>
<rect x="97" y="295.001" width="445" height="367" stroke="white" stroke-width="34"/>
<path d="M160.002 363.842L204.213 364.78" stroke="white" stroke-width="16" stroke-linecap="round"/>
<circle cx="123" cy="976.001" r="18" fill="white"/>
<line x1="69" y1="1028" x2="570" y2="1028" stroke="white" stroke-width="36" stroke-linecap="round"/>
<line x1="570" y1="1028" x2="570" y2="932.001" stroke="white" stroke-width="36" stroke-linecap="round"/>
<line x1="69" y1="1025" x2="69" y2="929.001" stroke="white" stroke-width="36" stroke-linecap="round"/>
<line x1="972" y1="1226" x2="972" y2="18" stroke="white" stroke-width="36" stroke-linecap="round"/>
<path d="M1392.65 751.001L1320.7 542.334H1319.16C1319.5 547.005 1319.9 553.385 1320.36 561.474C1320.82 569.564 1321.21 578.223 1321.56 587.451C1321.9 596.68 1322.07 605.509 1322.07 613.94V751.001H1284.81V501.147H1342.41L1411.62 700.586H1412.64L1484.25 501.147H1541.67V751.001H1502.54V611.89C1502.54 604.256 1502.65 595.996 1502.88 587.109C1503.22 578.223 1503.56 569.792 1503.9 561.816C1504.36 553.841 1504.7 547.461 1504.93 542.676H1503.56L1428.88 751.001H1392.65ZM1708.3 615.307H1801.61V740.747C1788.51 745.076 1774.95 748.437 1760.94 750.83C1746.92 753.223 1731.2 754.419 1713.77 754.419C1688.36 754.419 1666.83 749.406 1649.17 739.38C1631.62 729.24 1618.29 714.599 1609.18 695.459C1600.06 676.204 1595.51 653.019 1595.51 625.903C1595.51 599.813 1600.58 577.197 1610.72 558.057C1620.86 538.802 1635.61 523.934 1654.98 513.452C1674.35 502.856 1697.82 497.558 1725.39 497.558C1738.95 497.558 1752.05 498.926 1764.7 501.66C1777.46 504.28 1789.13 507.926 1799.73 512.598L1785.37 546.435C1776.94 542.448 1767.49 539.087 1757 536.352C1746.52 533.618 1735.64 532.251 1724.36 532.251C1706.48 532.251 1691.04 536.125 1678.05 543.872C1665.18 551.619 1655.26 562.557 1648.31 576.684C1641.36 590.698 1637.89 607.275 1637.89 626.416C1637.89 644.987 1640.68 661.279 1646.26 675.293C1651.85 689.307 1660.56 700.244 1672.41 708.105C1684.37 715.853 1699.81 719.726 1718.72 719.726C1728.18 719.726 1736.21 719.214 1742.82 718.188C1749.43 717.163 1755.52 716.024 1761.11 714.77V650.342H1708.3V615.307ZM2003.95 558.227C2003.95 569.507 2001.67 579.305 1997.12 587.622C1992.56 595.939 1986.29 602.775 1978.32 608.13C1970.46 613.371 1961.34 617.13 1950.97 619.409V620.605C1970.91 623.112 1985.95 629.378 1996.09 639.404C2006.35 649.43 2011.47 662.703 2011.47 679.224C2011.47 693.693 2008 706.624 2001.05 718.017C1994.1 729.297 1983.45 738.183 1969.09 744.678C1954.73 751.172 1936.28 754.419 1913.72 754.419C1900.16 754.419 1887.57 753.336 1875.95 751.172C1864.44 749.007 1853.51 745.532 1843.14 740.747V705.029C1853.73 710.27 1865.01 714.315 1876.98 717.163C1888.94 720.011 1900.27 721.435 1910.98 721.435C1931.83 721.435 1946.7 717.562 1955.59 709.814C1964.48 701.953 1968.92 691.129 1968.92 677.344C1968.92 668.457 1966.58 661.165 1961.91 655.469C1957.35 649.772 1950.23 645.5 1940.55 642.651C1930.98 639.803 1918.62 638.379 1903.46 638.379H1881.42V606.079H1903.64C1918.11 606.079 1929.73 604.37 1938.5 600.952C1947.27 597.42 1953.6 592.578 1957.47 586.426C1961.46 580.273 1963.45 573.096 1963.45 564.892C1963.45 554.183 1959.98 545.866 1953.03 539.941C1946.08 533.903 1935.76 530.884 1922.09 530.884C1913.66 530.884 1905.97 531.852 1899.02 533.789C1892.19 535.726 1885.86 538.175 1880.05 541.138C1874.24 544.1 1868.72 547.29 1863.47 550.708L1844.16 522.851C1853.62 515.788 1864.9 509.806 1878 504.907C1891.1 500.008 1906.37 497.558 1923.8 497.558C1949.44 497.558 1969.2 503.084 1983.1 514.136C1997 525.073 2003.95 539.77 2003.95 558.227Z" fill="white"/>
</svg>
